<?xml version="1.0" encoding="UTF-8"?>
<svg version="1.1" xmlns="http://www.w3.org/2000/svg" width="512" height="512">
<path d="M0 0 C0 96.03 0 192.06 0 291 C-6.21438169 289.44640458 -10.81676454 286.92510341 -15 282 C-16.59536083 276.19615481 -16.42591745 270.57383937 -16.29296875 264.59375 C-16.29489266 262.90123295 -16.30166664 261.20871511 -16.31306458 259.51623535 C-16.32999658 255.0829486 -16.28146617 250.65275269 -16.21887207 246.2199707 C-16.16660428 241.68833327 -16.17682189 237.15687267 -16.18164062 232.625 C-16.18193933 223.74907352 -16.11302002 214.87515676 -16 206 C-16.83144531 206.54140625 -16.83144531 206.54140625 -17.6796875 207.09375 C-18.40414062 207.5578125 -19.12859375 208.021875 -19.875 208.5 C-20.59429687 208.9640625 -21.31359375 209.428125 -22.0546875 209.90625 C-24 211 -24 211 -26 211 C-26 213.64 -26 216.28 -26 219 C-27.32 218.34 -28.64 217.68 -30 217 C-47.1745449 210.55954566 -64.59885061 204.80038313 -82 199 C-82 144.22 -82 89.44 -82 33 C-74.13577548 29.37035791 -66.3395886 25.81096306 -58.3359375 22.5390625 C-57.37837555 22.14480072 -56.4208136 21.75053894 -55.43423462 21.34432983 C-52.41555222 20.10194976 -49.39536723 18.86327767 -46.375 17.625 C-43.38714073 16.39759188 -40.39961886 15.16936989 -37.41241455 13.94036865 C-35.45581567 13.13570993 -33.49874841 12.33218908 -31.54119873 11.52984619 C-26.82706601 9.59396406 -22.1259704 7.63409336 -17.44628906 5.61621094 C-16.57493317 5.24209076 -15.70357727 4.86797058 -14.80581665 4.48251343 C-13.17369041 3.77948538 -11.5440932 3.07054517 -9.91757202 2.35464478 C-6.33176091 0.81232125 -3.96135907 0 0 0 Z " fill="#000000" transform="translate(405,36)"/>
<path d="M0 0 C1.61177124 0.51699463 1.61177124 0.51699463 3.25610352 1.04443359 C6.49319901 2.09125879 9.72290357 3.15697126 12.95025635 4.23327637 C15.44821042 5.06608241 17.94741703 5.89505697 20.44677734 6.72363281 C28.45773998 9.38121801 36.4659118 12.04704246 44.46899414 14.72827148 C57.06486414 18.94776786 69.67558997 23.11547539 82.31243896 27.21060181 C84.92683495 28.05903892 87.54002725 28.9110806 90.15283203 29.7644043 C98.61049241 32.52536385 107.07323471 35.2664128 115.55491638 37.95283508 C119.72134151 39.27712635 123.88160688 40.62009368 128.04092407 41.96652222 C130.03419577 42.60705635 132.03008539 43.2395077 134.02865601 43.86331177 C136.80366029 44.73041062 139.56813475 45.62556626 142.33203125 46.52734375 C143.55709885 46.89857864 143.55709885 46.89857864 144.80691528 47.27731323 C150.38446196 49.1414986 154.25779297 51.81741402 157.25 57 C157.625 60.9375 157.625 60.9375 157.25 64 C156.52638275 63.70327896 155.8027655 63.40655792 155.05722046 63.10084534 C152.50104959 62.09844854 149.9503603 61.21782741 147.33447266 60.38647461 C146.3760849 60.08085098 145.41769714 59.77522736 144.43026733 59.46034241 C143.39366974 59.13182785 142.35707214 58.80331329 141.2890625 58.46484375 C140.18954254 58.11477768 139.09002258 57.76471161 137.95718384 57.40403748 C135.59819733 56.65311796 133.23896698 55.90296412 130.8795166 55.15350342 C127.3143543 54.02045256 123.75026454 52.88409429 120.18652344 51.74658203 C112.66753204 49.34711574 105.14669173 46.953485 97.625 44.5625 C96.95723289 44.3501836 96.28946579 44.1378672 95.60146332 43.91911697 C72.5689034 36.59683937 49.50204393 29.39305854 26.39990234 22.29321289 C25.30703918 21.95709991 24.21417603 21.62098694 23.0881958 21.27468872 C21.07465408 20.65574352 19.06080631 20.03779253 17.04656982 19.42111206 C12.04962658 17.88602254 7.08270167 16.2932977 2.14295959 14.58227539 C-3.46039571 12.85868028 -8.98709561 13.18150868 -14.25 15.625 C-18.3176451 19.48926284 -19.8979244 22.94201673 -20.1875 28.5 C-20.02922295 32.97697941 -18.69721017 35.56158814 -15.75 39 C-12.6313509 41.71671061 -9.68954679 42.84092132 -5.74389648 44.02124023 C-4.53261581 44.38849716 -3.32133514 44.75575409 -2.073349 45.13414001 C-1.42934584 45.32537886 -0.78534267 45.5166177 -0.12182426 45.71365166 C1.9024808 46.31560394 3.92311037 46.92866902 5.94309998 47.54493713 C11.68438727 49.29445086 17.43141707 51.02464677 23.18139648 52.74536133 C26.70393925 53.80034801 30.22211871 54.8689473 33.73801994 55.94584846 C35.07641891 56.35266588 36.41646079 56.75411886 37.75811958 57.15005302 C39.63366581 57.70370245 41.50363668 58.27613403 43.37329102 58.84936523 C44.43822281 59.16896713 45.5031546 59.48856903 46.60035706 59.81785583 C50.26622565 61.45339136 51.57595967 63.55584307 53.2331543 67.10644531 C53.51070557 67.83959961 53.78825684 68.57275391 54.07421875 69.328125 C54.38037109 70.12734375 54.68652344 70.9265625 55.00195312 71.75 C55.46504883 72.9875 55.46504883 72.9875 55.9375 74.25 C56.25783203 75.09046875 56.57816406 75.9309375 56.90820312 76.796875 C57.69454323 78.86248483 58.47491769 80.93014538 59.25 83 C64.05231107 81.99850074 68.75020026 80.89433318 73.44140625 79.45703125 C74.32376953 79.18826172 75.20613281 78.91949219 76.11523438 78.64257812 C77.92029974 78.08707285 79.72241077 77.52187962 81.52148438 76.94726562 C87.07952585 75.2761939 91.54426398 74.60635586 97.25 76 C98.30179443 76.25515381 99.35358887 76.51030762 100.43725586 76.77319336 C118.64788068 81.52724585 132.66209814 87.58135778 147.02294922 100.09277344 C150.30580487 102.90418194 153.76533435 105.4468089 157.25 108 C158.51810921 108.94894316 159.78501319 109.89949879 161.05078125 110.8515625 C163.32974657 112.56204174 165.61112333 114.26909319 167.89599609 115.97167969 C170.74835527 118.09927921 173.59331697 120.23648712 176.4375 122.375 C177.33533203 123.04144531 178.23316406 123.70789063 179.15820312 124.39453125 C186.38836043 129.85146091 191.63316501 134.18750377 193.09765625 143.4765625 C193.4823638 149.84889782 191.36365343 155.12856831 187.25 160 C182.85968317 164.10846933 178.7949589 165.37340126 172.8125 165.625 C162.41232098 165.12464774 156.1889925 159.30681218 148.44824219 152.99023438 C143.45188832 148.91587043 138.33288221 145.04936963 133.125 141.25 C125.00638117 135.32295638 116.99245259 129.26912005 109.01513672 123.15332031 C108.1748291 122.50975586 107.33452148 121.86619141 106.46875 121.203125 C105.72560547 120.63239258 104.98246094 120.06166016 104.21679688 119.47363281 C101.04762234 116.81585271 101.04762234 116.81585271 97.1723175 116.1199646 C90.60386204 117.59555062 84.20851378 119.44043974 77.79296875 121.4765625 C75.60636663 122.15444256 73.41950952 122.83150055 71.23242188 123.5078125 C67.83343929 124.56391181 64.43648756 125.62532104 61.04370117 126.70117188 C57.73592212 127.74722371 54.421564 128.76972882 51.10546875 129.7890625 C50.11024704 130.11089508 49.11502533 130.43272766 48.08964539 130.76431274 C40.46664394 133.07895734 31.34361533 135.07376181 23.7006073 131.96206665 C17.84429343 128.61787177 14.37476641 123.67207451 11.4375 117.6875 C10.91800781 116.63046875 10.39851563 115.5734375 9.86328125 114.484375 C8.47554283 111.48712882 7.19670272 108.46562004 5.94433594 105.41015625 C-2.65498429 84.70619099 -16.96815809 66.75280574 -30.8125 49.3125 C-38.42205784 39.68286164 -45.19124141 29.97117273 -43.75 17 C-42.46001949 11.61573354 -40.89479104 6.82596096 -36.75 3 C-24.46624173 -4.21850235 -13.43763775 -4.5037676 0 0 Z " fill="#000000" transform="translate(220.75,204)"/>
<path d="M0 0 C5.21412324 1.59490828 8.94450365 4.89272869 13.125 8.25 C20.31562297 13.93612339 27.60265353 19.45688419 35.00537109 24.86352539 C38.86827194 27.68702879 42.71142927 30.5288503 46.5078125 33.44140625 C47.22372559 33.98845215 47.93963867 34.53549805 48.67724609 35.09912109 C50.01037431 36.12071499 51.3392104 37.14794755 52.66259766 38.18212891 C58.1917118 42.40713679 63.36284085 45.45959706 70.5625 45.25 C71.45066406 45.23453125 72.33882813 45.2190625 73.25390625 45.203125 C76.18870775 44.98604153 79.09722098 44.4837965 82 44 C82 85.58 82 127.16 82 170 C76.18626564 168.06208855 70.45683795 166.0891432 64.75 163.8828125 C63.98559601 163.5890271 63.22119202 163.2952417 62.43362427 162.99255371 C59.95486662 162.03897632 57.4773539 161.08221779 55 160.125 C54.15193787 159.79796082 53.30387573 159.47092163 52.43011475 159.13397217 C40.70914099 154.6139794 28.99768651 150.06934182 17.30371094 145.47991943 C15.85382017 144.91098678 14.40362553 144.34282792 12.953125 143.77545166 C10.9494251 142.99107504 8.9471487 142.20318129 6.9453125 141.4140625 C5.81625488 140.9701416 4.68719727 140.5262207 3.52392578 140.06884766 C1 139 1 139 0 138 C-0.75889354 127.53842778 0.71924044 117.12829626 1.96875 106.765625 C2.17133061 105.03465949 2.37309736 103.30359857 2.57409668 101.57244873 C3.10055876 97.05107427 3.63496321 92.53068155 4.17205811 88.01055908 C5.03283786 80.7646615 5.88638922 73.51794724 6.73036194 66.27007294 C7.02499408 63.75649573 7.3261464 61.24375994 7.62780762 58.73101807 C9.98884078 43.47200312 9.98884078 43.47200312 6 29 C4.98837392 27.97121359 3.95587537 26.96264382 2.90625 25.97265625 C-1.21289809 21.28504823 -0.67746932 16.5226967 -0.375 10.5625 C-0.34792969 9.54478516 -0.32085937 8.52707031 -0.29296875 7.47851562 C-0.22268507 4.98344487 -0.12437201 2.49286153 0 0 Z " fill="#000000" transform="translate(323,327)"/>
<path d="M0 0 C1.046875 2.06640625 1.046875 2.06640625 1.75 4.5625 C1.99234375 5.38878906 2.2346875 6.21507812 2.484375 7.06640625 C2.65453125 7.70449219 2.8246875 8.34257812 3 9 C-4.20834852 12.74770332 -11.46785175 15.8616049 -19 19 C-19.33 175.09 -19.66 331.18 -20 492 C-18.02 492.66 -16.04 493.32 -14 494 C-12.76951913 494.54419827 -11.55041133 495.11582819 -10.3515625 495.7265625 C-9.73925781 496.0359375 -9.12695312 496.3453125 -8.49609375 496.6640625 C-7.87863281 496.98117187 -7.26117188 497.29828125 -6.625 497.625 C-5.98433594 497.94984375 -5.34367187 498.2746875 -4.68359375 498.609375 C-3.12052499 499.40257407 -1.55999378 500.20077031 0 501 C-0.39595843 502.48484412 -0.81750706 503.9628831 -1.25 505.4375 C-1.48203125 506.26121094 -1.7140625 507.08492188 -1.953125 507.93359375 C-3 510 -3 510 -4.68554688 510.78710938 C-8.02903754 511.09465409 -10.06145333 509.90705405 -13.078125 508.47265625 C-14.81835938 507.65571289 -14.81835938 507.65571289 -16.59375 506.82226562 C-17.81262145 506.23592948 -19.03136993 505.64933765 -20.25 505.0625 C-21.48386735 504.4787435 -22.7182375 503.89604847 -23.953125 503.31445312 C-26.97386558 501.88668121 -29.98902221 500.4482183 -33 499 C-33.09353661 481.27562704 -33.16402481 463.55131834 -33.20724869 445.82675171 C-33.2278538 437.59649391 -33.25593498 429.36638968 -33.30175781 421.13623047 C-33.34168862 413.96089351 -33.36744773 406.7856678 -33.37635398 399.61022282 C-33.38155822 395.81256904 -33.39374677 392.01523345 -33.42292023 388.21768188 C-33.45018837 384.6389565 -33.45842227 381.06067861 -33.45243073 377.48185921 C-33.4540458 375.55103454 -33.47550881 373.62025797 -33.49768066 371.68955994 C-33.46407746 364.57777453 -32.66824319 360.10513955 -29 354 C-28.38499473 351.1948824 -28.38499473 351.1948824 -28.5 348.5625 C-28.48453125 347.29599609 -28.48453125 347.29599609 -28.46875 346.00390625 C-28.97284443 343.15354876 -29.67978 341.62535436 -31.0031395 339.11307621 C-33.66930969 333.18811167 -33.54451054 327.59579728 -33.48101807 321.18687439 C-33.48443577 319.91736689 -33.48785347 318.64785938 -33.49137473 317.33988196 C-33.50027292 313.83694425 -33.48438304 310.33450043 -33.46426249 306.83162558 C-33.44692685 303.04647316 -33.45283849 299.26134674 -33.45587158 295.47616577 C-33.4579651 288.92500695 -33.44545593 282.37400795 -33.42292023 275.82288933 C-33.39035909 266.35119551 -33.37998901 256.87957867 -33.37496826 247.40783495 C-33.36622205 232.03918019 -33.3396248 216.67061053 -33.30175781 201.30200195 C-33.26502026 186.37622502 -33.23671704 171.45047124 -33.21972656 156.5246582 C-33.21815022 155.14373252 -33.21815022 155.14373252 -33.21654204 153.73490935 C-33.21132174 149.11626719 -33.20626694 144.49762486 -33.20129442 139.87898242 C-33.15985339 101.58592871 -33.08942335 63.29296998 -33 25 C-39.27940942 27.67053981 -45.55863133 30.34152013 -51.83773804 33.01277161 C-53.96265672 33.91669605 -56.08761446 34.8205287 -58.21261597 35.72425842 C-86.39562834 47.69794664 -86.39562834 47.69794664 -114.52324867 59.80095196 C-117.99207299 61.27440033 -121.26642381 62.43712897 -125 63 C-125.67119549 61.5437455 -126.33681807 60.08492133 -127 58.625 C-127.37125 57.81289063 -127.7425 57.00078125 -128.125 56.1640625 C-129 54 -129 54 -129 52 C-126.71530704 51.02689004 -124.43061386 50.0537806 -122.1459198 49.08067322 C-120.06267451 48.19336254 -117.97943287 47.30604327 -115.89619446 46.41871643 C-109.95537566 43.8883222 -104.01448856 41.35808852 -98.07348633 38.828125 C-95.56330373 37.75913823 -93.05313219 36.6901255 -90.54296875 35.62109375 C-89.9074515 35.35043972 -89.27193424 35.07978569 -88.61715889 34.80093002 C-79.68727654 30.99774717 -70.75860887 27.19172634 -61.83085632 23.38354683 C-57.61059964 21.58353335 -53.39002186 19.7842728 -49.16949463 17.9848938 C-46.87404607 17.00600162 -44.57875426 16.02674178 -42.28363037 15.04708862 C-36.10581685 12.4102253 -29.92435609 9.78231683 -23.73822021 7.16503906 C-21.09699359 6.04126816 -18.4633039 4.90130225 -15.83056641 3.7578125 C-14.28954471 3.09859192 -12.74837681 2.43971298 -11.20703125 1.78125 C-10.52420578 1.47916626 -9.84138031 1.17708252 -9.13786316 0.86584473 C-3.2569156 -1.61934927 -3.2569156 -1.61934927 0 0 Z " fill="#000000" transform="translate(445,1)"/>
<path d="M0 0 C1.87768555 1.38598633 1.87768555 1.38598633 3.63671875 3.33203125 C4.29196533 4.04311035 4.94721191 4.75418945 5.62231445 5.48681641 C6.6445813 6.63802979 6.6445813 6.63802979 7.6875 7.8125 C8.74553833 8.97531494 8.74553833 8.97531494 9.82495117 10.16162109 C11.23844226 11.71680057 12.64682073 13.27664369 14.04980469 14.84130859 C15.72848158 16.69945344 17.43157214 18.52428902 19.1640625 20.33203125 C26.54207356 28.11267714 29.23904426 33.24648684 29.15835571 43.98522949 C28.91827321 52.09055191 27.84082954 60.15387124 26.91796875 68.203125 C26.70060245 70.13592657 26.48359341 72.06876835 26.266922 74.00164795 C25.81360063 78.02966354 25.35483497 82.05701287 24.89233398 86.08398438 C24.30241297 91.2257298 23.72802784 96.36907623 23.15790844 101.51305008 C22.71438685 105.49626491 22.26173039 109.47840244 21.8064518 113.460289 C21.5909658 115.35602715 21.37847866 117.25210883 21.1691494 119.14853668 C20.87501546 121.80234496 20.56832686 124.4544241 20.25854492 127.10644531 C20.13446259 128.2615712 20.13446259 128.2615712 20.00787354 129.44003296 C19.16526549 136.44729777 17.96413616 144.26333662 12.25 148.9375 C7.24157076 152.86943625 2.79097769 154.29060451 -3.5625 153.8125 C-10.28003077 152.79917756 -14.5604912 150.15953477 -18.73828125 144.86328125 C-25.36789699 135.07279609 -20.73087757 118.90958655 -19.41270256 107.70889091 C-19.14506045 105.43419273 -18.88135925 103.15906515 -18.61854553 100.88380432 C-18.06158589 96.06797264 -17.49984136 91.2527058 -16.9375 86.4375 C-16.2816123 80.81932791 -15.62774027 75.20093385 -14.97851753 69.58198738 C-14.71938027 67.34770762 -14.45681201 65.11384869 -14.19407654 62.87998962 C-14.03538805 61.51042559 -13.87685602 60.14084342 -13.71850586 58.77124023 C-13.57940292 57.58102768 -13.44029999 56.39081512 -13.29698181 55.16453552 C-12.53258998 49.40418427 -12.53258998 49.40418427 -14.9140625 44.4140625 C-15.80867188 43.49367188 -16.70328125 42.57328125 -17.625 41.625 C-18.1099292 41.11678711 -18.5948584 40.60857422 -19.09448242 40.08496094 C-20.15274879 38.97618981 -21.21605805 37.87221552 -22.28369141 36.77246094 C-24.70874081 34.26807137 -27.10142218 31.73409475 -29.48779297 29.19287109 C-30.67070536 27.93335586 -31.85826382 26.67818174 -33.05126953 25.42822266 C-37.05209374 21.18885437 -40.59282819 16.728194 -44 12 C-40.05325636 10.77256042 -36.1063073 9.54578417 -32.15917969 8.31958008 C-30.82090909 7.90373964 -29.48269145 7.48772874 -28.14453125 7.0715332 C-24.93889784 6.07457162 -21.73247066 5.08046626 -18.52441406 4.09130859 C-16.34613619 3.41682106 -14.17040935 2.73395328 -11.99902344 2.03759766 C-11.13051758 1.76351074 -10.26201172 1.48942383 -9.3671875 1.20703125 C-8.6335498 0.97089111 -7.89991211 0.73475098 -7.14404297 0.49145508 C-4.60520552 -0.09049434 -2.59602246 -0.30006745 0 0 Z " fill="#000000" transform="translate(300,328)"/>
<path d="M0 0 C1.50116634 0.47692989 3.00258126 0.953078 4.50422668 1.42849731 C7.68528029 2.43727091 10.86465676 3.45110142 14.04275513 4.46914673 C19.01603562 6.0621773 23.9928635 7.64390016 28.97045898 9.22338867 C33.94361925 10.80191676 38.91663756 12.38087339 43.88841248 13.96376038 C55.94418634 17.80156429 68.01328582 21.59372383 80.09823608 25.33880615 C82.76651348 26.16636471 85.43380613 26.99702494 88.10083008 27.82861328 C95.38802826 30.09883832 102.67830364 32.35506556 109.98994446 34.54548645 C113.01795349 35.45380503 116.04290106 36.37206744 119.06759644 37.29135132 C121.08444811 37.89942246 123.10545341 38.491697 125.12719727 39.08325195 C131.38130393 40.98630724 136.19874689 42.55567544 140.734375 47.36328125 C142.7228548 51.34024086 142.25891197 56.03890087 141.734375 60.36328125 C140.46288106 63.38753552 139.41461261 64.1855882 136.734375 66.36328125 C130.1837764 68.7063154 126.16148576 68.20857831 119.6484375 66.0859375 C118.75073639 65.81145279 117.85303528 65.53696808 116.9281311 65.25416565 C113.8572768 64.30965806 110.79641247 63.33596324 107.734375 62.36328125 C105.4338403 61.65033241 103.13270882 60.93930705 100.83105469 60.22998047 C93.62458593 58.00162198 86.42893969 55.73988844 79.23513412 53.47108078 C73.36385571 51.61973501 67.49136558 49.77223182 61.61900139 47.92433357 C60.09630923 47.445108 58.57366155 46.96574109 57.05105782 46.48623466 C46.05099516 43.02236515 35.04073023 39.59286207 24.02238464 36.18762016 C19.3903213 34.75501774 14.75984897 33.31727963 10.12937546 31.87954807 C6.42030224 30.7284624 2.71017646 29.58102698 -1.00250244 28.44161987 C-4.48421973 27.37306399 -7.9630319 26.29553169 -11.43988991 25.21127319 C-13.31843606 24.62814581 -15.20003237 24.05487288 -17.08171082 23.48193359 C-30.57432648 19.25485615 -30.57432648 19.25485615 -34.203125 13.05078125 C-35.43218122 8.78523319 -35.55541704 6.61200798 -34.265625 2.36328125 C-30.09983495 -4.05152429 -30.09983495 -4.05152429 -26.39862061 -5.2323761 C-17.58823777 -6.90252185 -8.27220829 -2.66616986 0 0 Z " fill="#000000" transform="translate(237.265625,224.63671875)"/>
<path d="M0 0 C7.06227355 5.77822381 13.01487239 13.08787757 14.75 22.25 C15.62396369 34.29923704 14.36035206 44.82105968 6.51171875 54.46875 C-1.16456989 62.23014161 -9.87851043 65.52014902 -20.625 65.6875 C-31.05789529 65.61547915 -39.64351907 62.6274686 -47.25 55.25 C-49.57755009 52.40521655 -51.46932289 49.46187554 -53.25 46.25 C-53.59160156 45.65832031 -53.93320313 45.06664062 -54.28515625 44.45703125 C-58.1263034 36.36382354 -57.40096063 24.72219184 -54.8125 16.375 C-50.16140775 5.5006153 -41.62366078 -0.77217545 -31 -5.0625 C-19.49682915 -7.17141466 -10.21923119 -5.50266295 0 0 Z M-23.25 33.25 C-24.38512696 35.09259017 -24.38512696 35.09259017 -24.25 37.25 C-22.91399272 40.14419428 -22.91399272 40.14419428 -20.9375 43 C-20.30199219 43.98484375 -19.66648437 44.9696875 -19.01171875 45.984375 C-18.43035156 46.73203125 -17.84898437 47.4796875 -17.25 48.25 C-16.59 48.25 -15.93 48.25 -15.25 48.25 C-14.82074219 47.49847656 -14.39148438 46.74695313 -13.94921875 45.97265625 C-9.75408521 39.2507986 1.37133876 33.70573608 8.97265625 31.6484375 C9.85244141 31.45121094 9.85244141 31.45121094 10.75 31.25 C9.77296079 29.4363523 8.79330895 27.62411183 7.8125 25.8125 C7.26722656 24.80316406 6.72195312 23.79382813 6.16015625 22.75390625 C4.97300532 20.38329507 4.97300532 20.38329507 3.75 19.25 C-5.91382891 18.29216917 -16.84489018 26.61661583 -23.25 33.25 Z " fill="#000000" transform="translate(168.25,153.75)"/>
<path d="M0 0 C4.32978342 2.24438018 6.81091746 4.98550602 8.93359375 9.3125 C10.24381091 14.18289345 10.33459766 17.91409275 8.30859375 22.5625 C7.85484375 23.8 7.40109375 25.0375 6.93359375 26.3125 C7.89299043 28.00286558 8.90002228 29.66644174 9.93359375 31.3125 C10.81251818 36.92341148 10.65491792 41.8482291 7.74609375 46.8125 C4.39142587 51.38195012 1.19527392 53.2600635 -4.37890625 54.1875 C-8.54195668 54.55523612 -11.48558014 53.76013988 -15.2421875 52.00390625 C-17.36465726 51.07622482 -17.36465726 51.07622482 -21.06640625 51.3125 C-22.91105683 53.1076102 -24.50816747 54.83456692 -26.12890625 56.8125 C-27.71980335 58.73670541 -29.3203973 60.51693821 -31.06640625 62.3125 C-32.05640625 62.3125 -33.04640625 62.3125 -34.06640625 62.3125 C-33.70521748 56.99499866 -30.74042538 54.19576861 -27.31640625 50.4375 C-23.24828908 45.90075169 -19.53181061 41.3309189 -16.06640625 36.3125 C-14.74640625 36.6425 -13.42640625 36.9725 -12.06640625 37.3125 C-12.06640625 41.07937864 -12.30177942 42.22440305 -14.06640625 45.3125 C-10.80793078 47.62058679 -7.91368211 47.52304407 -4.03515625 46.9296875 C-0.82382644 45.92296109 0.87064256 43.87556057 2.93359375 41.3125 C4.19597106 38.78774538 4.03215779 37.00049534 3.99609375 34.1875 C3.98707031 33.27742188 3.97804687 32.36734375 3.96875 31.4296875 C3.95714844 30.73101562 3.94554687 30.03234375 3.93359375 29.3125 C1.95359375 29.9725 -0.02640625 30.6325 -2.06640625 31.3125 C-1.70546875 30.8278125 -1.34453125 30.343125 -0.97265625 29.84375 C3.31452829 23.65115011 3.65341187 19.93990219 2.49609375 12.5 C0.30696149 9.43521483 -1.9726658 8.63512838 -5.55078125 7.63671875 C-9.92099708 7.07347665 -13.38833108 7.8801056 -17.06640625 10.3125 C-19.84096175 13.93547329 -21.04374646 17.91702955 -22.06640625 22.3125 C-23.06640625 21.3125 -23.06640625 21.3125 -23.1640625 19.24609375 C-23.15246094 18.42238281 -23.14085937 17.59867188 -23.12890625 16.75 C-23.11988281 15.92371094 -23.11085937 15.09742187 -23.1015625 14.24609375 C-23.08996094 13.60800781 -23.07835937 12.96992187 -23.06640625 12.3125 C-29.97763551 13.6473626 -29.97763551 13.6473626 -35.06640625 18.3125 C-36.66347461 21.50663671 -36.43920631 24.83747087 -36.06640625 28.3125 C-34.98412253 31.25911338 -34.98412253 31.25911338 -33.06640625 33.3125 C-30.98106992 34.19072312 -30.98106992 34.19072312 -29.06640625 34.3125 C-28.40640625 32.6625 -27.74640625 31.0125 -27.06640625 29.3125 C-25.41640625 29.6425 -23.76640625 29.9725 -22.06640625 30.3125 C-22.68287462 34.31475317 -23.95870299 37.44786305 -25.7890625 41.05078125 C-26.32724609 42.11748047 -26.86542969 43.18417969 -27.41992188 44.28320312 C-27.98388672 45.38599609 -28.54785156 46.48878906 -29.12890625 47.625 C-29.69673828 48.74712891 -30.26457031 49.86925781 -30.84960938 51.02539062 C-32.24983602 53.79054408 -33.6555929 56.55273716 -35.06640625 59.3125 C-36.38640625 59.3125 -37.70640625 59.3125 -39.06640625 59.3125 C-36.90477112 52.37251352 -34.17278485 45.88132431 -31.06640625 39.3125 C-31.95328125 39.10625 -32.84015625 38.9 -33.75390625 38.6875 C-38.05090929 36.90383836 -39.37964067 35.07397182 -42.06640625 31.3125 C-43.60017804 26.71118463 -43.97115457 21.96470508 -42.3828125 17.30859375 C-40.11625506 12.95417011 -37.40942061 10.48400718 -33.06640625 8.3125 C-30.37974655 7.74716041 -27.81793362 7.53439737 -25.06640625 7.3125 C-20.76645103 6.82107655 -19.02002704 4.33996131 -16.06640625 1.3125 C-11.21727453 -1.65823122 -5.35662418 -1.78216608 0 0 Z " fill="#000000" transform="translate(186.06640625,74.6875)"/>
<path d="M0 0 C0.99 0.66 1.98 1.32 3 2 C2.03900391 2.8353125 2.03900391 2.8353125 1.05859375 3.6875 C-3.79608028 7.97061033 -8.32504108 12.26123107 -12.4296875 17.2734375 C-14.1506674 19.16565918 -15.8515197 20.61181691 -18 22 C-21.14666775 21.92325201 -22.50481797 21.46103154 -24.8125 19.3125 C-26.43912364 16.1448645 -26.62326325 14.53182506 -26 11 C-22.94051498 5.46893101 -18.5183298 2.71457389 -12.66796875 0.65234375 C-8.45262913 -0.3783469 -4.29690118 -0.67804312 0 0 Z " fill="#000000" transform="translate(90,199)"/>
<path d="M0 0 C6.7703296 4.73923072 12.6560955 10.23410258 18.6640625 15.87890625 C23.07160901 20.01914209 27.59767018 24.01329817 32.2578125 27.8671875 C32.99773437 28.48851562 33.73765625 29.10984375 34.5 29.75 C35.1703125 30.30171875 35.840625 30.8534375 36.53125 31.421875 C38 33 38 33 38 36 C33.75036411 35.49045133 31.14354588 32.84672944 28.0625 30.125 C26.8998734 29.1196369 25.73710908 28.11443304 24.57421875 27.109375 C23.9817334 26.59310547 23.38924805 26.07683594 22.77880859 25.54492188 C19.99848136 23.13016608 17.18757139 20.75204104 14.375 18.375 C13.57811768 17.69981323 13.57811768 17.69981323 12.76513672 17.01098633 C7.5619374 12.61029819 2.29121467 8.29447283 -3 4 C-2.01 2.68 -1.02 1.36 0 0 Z " fill="#000000" transform="translate(278,177)"/>
<path d="M0 0 C5.2094641 1.69079098 9.16309873 4.18960219 12 9 C11.67 9.99 11.34 10.98 11 12 C7.56183853 11.8901717 4.12477652 11.75953137 0.6875 11.625 C-0.28896484 11.5940625 -1.26542969 11.563125 -2.27148438 11.53125 C-3.20927734 11.49257812 -4.14707031 11.45390625 -5.11328125 11.4140625 C-5.97735596 11.3826416 -6.84143066 11.3512207 -7.73168945 11.31884766 C-10 11 -10 11 -13 9 C-12.6875 5.625 -12.6875 5.625 -12 2 C-7.9231103 -0.71792647 -4.78625785 -0.62732506 0 0 Z " fill="#000000" transform="translate(89,176)"/>
<path d="M0 0 C15.89794723 6.1634003 31.46116283 12.9924268 47 20 C46.505 21.485 46.505 21.485 46 23 C40.92363688 22.26416377 36.35359388 20.31051598 31.61328125 18.4375 C30.71506149 18.0861499 29.81684174 17.7347998 28.8914032 17.37280273 C26.03023953 16.2523914 23.17140678 15.12615586 20.3125 14 C18.37709333 13.24182949 16.44154795 12.48401297 14.50585938 11.7265625 C12.66654313 11.00552339 10.82734623 10.28417975 8.98828125 9.5625 C8.11746414 9.22081787 7.24664703 8.87913574 6.34944153 8.52709961 C5.54488022 8.2100708 4.74031891 7.89304199 3.91137695 7.56640625 C2.84811943 7.14790405 2.84811943 7.14790405 1.76338196 6.72094727 C0 6 0 6 -2 5 C-1.34 3.35 -0.68 1.7 0 0 Z " fill="#000000" transform="translate(268,199)"/>
<path d="M0 0 C-1.68316108 3.56484884 -3.69533736 6.86399994 -5.8125 10.1875 C-6.47894531 11.25355469 -7.14539063 12.31960937 -7.83203125 13.41796875 C-10 16 -10 16 -12.64453125 16.92578125 C-15 17 -15 17 -16.875 16 C-18.7153162 12.72832676 -17.97428261 10.53177447 -17 7 C-12.96641008 1.62188011 -6.71199443 -2.18251935 0 0 Z " fill="#000000" transform="translate(108,214)"/>
<path d="M0 0 C1.98 0.495 1.98 0.495 4 1 C3.94199219 1.95261719 3.88398437 2.90523438 3.82421875 3.88671875 C3.3094646 10.64553417 3.3094646 10.64553417 5.04296875 17.0078125 C8.45150879 20.34638251 11.53597567 21.15066448 16.125 21.5625 C17.03507812 21.64628906 17.94515625 21.73007813 18.8828125 21.81640625 C19.58148438 21.87699219 20.28015625 21.93757813 21 22 C21 23.32 21 24.64 21 26 C14.53816085 26.35104559 9.67089989 26.28912194 4 23 C-0.45694262 18.19119349 -1.1382996 15.4902025 -1.125 9 C-1.12757812 7.741875 -1.13015625 6.48375 -1.1328125 5.1875 C-1 2 -1 2 0 0 Z " fill="#000000" transform="translate(107,98)"/>
<path d="M0 0 C8.17358391 -0.35709833 13.88024573 -0.56303072 20.3125 5 C23.11172733 9.97640414 23.58210591 15.65145017 22.60546875 21.26953125 C22.0625 23.1875 22.0625 23.1875 21 26 C19.68 25.67 18.36 25.34 17 25 C17.10699219 24.11957031 17.21398437 23.23914063 17.32421875 22.33203125 C17.44410156 21.17058594 17.56398438 20.00914062 17.6875 18.8125 C17.81511719 17.66394531 17.94273438 16.51539063 18.07421875 15.33203125 C17.99002455 11.55215469 17.29603755 9.95805295 15 7 C11.71508627 4.81005752 10.16904361 4.64722661 6.3125 4.375 C4.82169922 4.26285156 4.82169922 4.26285156 3.30078125 4.1484375 C2.54152344 4.09945312 1.78226562 4.05046875 1 4 C0.67 2.68 0.34 1.36 0 0 Z " fill="#000000" transform="translate(78,126)"/>
<path d="M0 0 C0.87785156 -0.00257812 1.75570312 -0.00515625 2.66015625 -0.0078125 C4.9375 0.125 4.9375 0.125 6.9375 1.125 C6.9375 2.445 6.9375 3.765 6.9375 5.125 C6.12925781 5.07859375 5.32101563 5.0321875 4.48828125 4.984375 C-2.16349258 4.64993903 -2.16349258 4.64993903 -8.25 6.9375 C-11.29942914 10.61784551 -11.17459726 13.69995494 -11.125 18.3125 C-11.11597656 19.39917969 -11.10695313 20.48585937 -11.09765625 21.60546875 C-11.08605469 22.43691406 -11.07445313 23.26835937 -11.0625 24.125 C-12.3825 24.455 -13.7025 24.785 -15.0625 25.125 C-16.86279881 19.72410356 -16.92926287 13.61197427 -14.875 8.25 C-11.27194772 2.0378409 -7.00076594 -0.02062081 0 0 Z " fill="#000000" transform="translate(119.0625,127.875)"/>
<path d="M0 0 C0 5.94 0 11.88 0 18 C-2.78358534 16.60820733 -4.9859053 15.39906839 -7.453125 13.6171875 C-8.071875 13.17246094 -8.690625 12.72773438 -9.328125 12.26953125 C-9.96234375 11.80933594 -10.5965625 11.34914063 -11.25 10.875 C-12.22453125 10.17310547 -12.22453125 10.17310547 -13.21875 9.45703125 C-14.81435483 8.30725718 -16.40743025 7.15397434 -18 6 C-17.67 5.34 -17.34 4.68 -17 4 C-16.41992188 4.04640625 -15.83984375 4.0928125 -15.2421875 4.140625 C-9.00451343 4.42883436 -5.20442168 0 0 0 Z " fill="#000000" transform="translate(379,290)"/>
<path d="M0 0 C2.71324214 4.06986321 2.51645061 7.22481817 2 12 C0.79632484 16.50719239 -1.23683864 20.17762898 -5 23 C-9.76458397 24.79795621 -13.92559809 25.29849423 -19 25 C-19.66 24.67 -20.32 24.34 -21 24 C-21 23.01 -21 22.02 -21 21 C-20.10796875 20.90203125 -19.2159375 20.8040625 -18.296875 20.703125 C-17.12640625 20.55359375 -15.9559375 20.4040625 -14.75 20.25 C-13.58984375 20.11078125 -12.4296875 19.9715625 -11.234375 19.828125 C-7.60295501 18.89834114 -6.27658349 17.92703592 -4 15 C-2.95023036 11.85069107 -2.89868405 9.61185544 -2.9375 6.3125 C-2.94652344 5.31863281 -2.95554687 4.32476562 -2.96484375 3.30078125 C-2.97644531 2.54152344 -2.98804687 1.78226562 -3 1 C-2.01 0.67 -1.02 0.34 0 0 Z " fill="#000000" transform="translate(101,97)"/>
<path d="M0 0 C3.53508103 0.29459009 4.76203444 0.74881413 7.25 3.375 C10.56039119 8.34058678 10.53902031 13.20553164 10 19 C8.5 22.625 8.5 22.625 7 25 C5.68 25 4.36 25 3 25 C3.875 19.25 3.875 19.25 5 17 C5.13731591 12.00758591 4.69084958 8.8256495 1.4375 4.9375 C0.633125 4.298125 -0.17125 3.65875 -1 3 C-0.67 2.01 -0.34 1.02 0 0 Z " fill="#000000" transform="translate(194,160)"/>
<path d="M0 0 C1.98 0.495 1.98 0.495 4 1 C3.96519531 1.59167969 3.93039063 2.18335938 3.89453125 2.79296875 C3.72556047 7.72530633 3.72821861 11.0271226 7 15 C9.38493793 17.08682069 10.96553905 17.98851302 14 19 C14 20.32 14 21.64 14 23 C8.72783638 22.58649697 5.72614602 21.82965008 2 18 C-1.50156448 12.92876868 -1.55769904 7.96308973 -1 2 C-0.67 1.34 -0.34 0.68 0 0 Z " fill="#000000" transform="translate(216,327)"/>
<path d="M0 0 C1.32 0 2.64 0 4 0 C3.96519531 0.58007812 3.93039063 1.16015625 3.89453125 1.7578125 C3.71501978 6.93800058 3.86133327 10.6463655 7 15 C9.26625828 16.61659758 11.48401754 17.76574445 14 19 C14 20.32 14 21.64 14 23 C8.09953096 22.71217224 4.8792709 20.1863372 1 16 C-1.63821161 11.75592045 -1.41132447 6.86893379 -1 2 C-0.67 1.34 -0.34 0.68 0 0 Z " fill="#000000" transform="translate(159,239)"/>
<path d="M0 0 C1.32 0 2.64 0 4 0 C4.04125 1.2375 4.0825 2.475 4.125 3.75 C4.56785827 7.59264712 4.82259588 7.85518031 8.0625 10.5 C9.031875 10.995 10.00125 11.49 11 12 C10.67 13.32 10.34 14.64 10 16 C3.64833006 14.56188605 3.64833006 14.56188605 1.125 12.375 C-0.52641775 8.88867365 -0.75122929 5.855946 -1 2 C-0.67 1.34 -0.34 0.68 0 0 Z " fill="#000000" transform="translate(223,328)"/>
<path d="M0 0 C0.99 0.33 1.98 0.66 3 1 C3.04125 2.2375 3.0825 3.475 3.125 4.75 C3.31084179 6.96179541 3.31084179 6.96179541 4 9 C6.95849927 11.33414647 6.95849927 11.33414647 10 13 C10 13.99 10 14.98 10 16 C5.93301428 15.76536621 3.67437958 15.62113909 0.625 12.8125 C-1.16847522 9.70840828 -1.84780386 7.57660937 -2 4 C-1.0625 1.625 -1.0625 1.625 0 0 Z " fill="#000000" transform="translate(167,239)"/>
<path d="M0 0 C3.39527689 1.40494216 5.30647023 2.69761694 7 6 C7.55726899 10.73249974 7.68751938 13.96872093 5 18 C3.68 17.67 2.36 17.34 1 17 C1.10699219 16.39671875 1.21398437 15.7934375 1.32421875 15.171875 C2.26060089 10.19173701 2.26060089 10.19173701 0.5 5.6875 C0.005 5.130625 -0.49 4.57375 -1 4 C-0.6875 1.75 -0.6875 1.75 0 0 Z " fill="#000000" transform="translate(189,164)"/>
</svg>
